<?xml version="1.0" standalone="no"?>
<!DOCTYPE svg PUBLIC "-//W3C//DTD SVG 20010904//EN"
 "http://www.w3.org/TR/2001/REC-SVG-20010904/DTD/svg10.dtd">
<svg version="1.0" xmlns="http://www.w3.org/2000/svg"
 width="512.000000pt" height="512.000000pt" viewBox="0 0 512.000000 512.000000"
 preserveAspectRatio="xMidYMid meet">

<g transform="translate(0.000000,512.000000) scale(0.100000,-0.100000)"
fill="#000000" stroke="none">
<path d="M1945 4566 c-27 -13 -64 -39 -82 -57 -17 -19 -246 -329 -508 -689
l-477 -655 -332 -5 c-323 -5 -332 -6 -379 -29 -65 -32 -133 -110 -152 -174
-19 -65 -19 -110 1 -176 20 -70 98 -151 169 -176 28 -10 51 -19 52 -20 5 -3
95 -517 213 -1217 69 -412 126 -723 136 -744 9 -20 35 -48 57 -62 l41 -27
1855 -3 c1268 -2 1867 0 1892 8 45 13 85 43 104 79 7 15 84 439 170 942 85
503 160 939 166 969 11 56 11 56 62 74 104 36 187 154 187 266 0 102 -71 214
-167 261 -47 23 -56 24 -379 29 l-332 5 -477 655 c-262 360 -492 672 -512 692
-56 58 -122 81 -213 76 -43 -3 -89 -12 -107 -21 -127 -66 -191 -217 -148 -346
12 -37 117 -190 381 -551 200 -275 364 -502 364 -505 0 -3 -436 -5 -970 -5
-533 0 -970 2 -970 5 0 3 164 230 364 505 264 361 369 514 381 551 47 140 -35
307 -173 353 -69 24 -157 20 -217 -8z m-394 -2049 c31 -17 50 -37 67 -68 21
-42 26 -86 68 -645 55 -742 54 -715 28 -751 -37 -49 -54 -53 -260 -53 -182 0
-193 1 -225 23 -70 46 -71 53 -159 746 -85 679 -86 684 -38 729 40 36 68 41
274 41 191 1 203 0 245 -22z m1249 0 c28 -15 51 -37 64 -62 20 -37 21 -54 18
-245 -7 -491 -32 -1100 -46 -1135 -28 -67 -57 -75 -264 -75 -196 0 -229 7
-276 59 -27 30 -33 119 -46 776 -14 627 -15 611 37 657 45 41 81 47 279 48
180 0 193 -1 234 -23z m1257 6 c48 -22 73 -66 73 -128 0 -45 -126 -1073 -150
-1218 -5 -33 -20 -78 -34 -102 -41 -69 -64 -75 -283 -75 -168 0 -191 2 -219
19 -58 35 -58 47 -25 488 17 219 37 499 46 623 17 247 26 299 57 343 41 58 81
67 301 67 166 0 205 -3 234 -17z"/>
</g>
</svg>
