<?xml version="1.0" standalone="no"?>
<!DOCTYPE svg PUBLIC "-//W3C//DTD SVG 20010904//EN"
 "http://www.w3.org/TR/2001/REC-SVG-20010904/DTD/svg10.dtd">
<svg version="1.0" xmlns="http://www.w3.org/2000/svg"
 width="512.000000pt" height="512.000000pt" viewBox="0 0 512.000000 512.000000"
 preserveAspectRatio="xMidYMid meet">

<g transform="translate(0.000000,512.000000) scale(0.100000,-0.100000)"
fill="#000000" stroke="none">
<path d="M4083 4610 c-193 -3 -354 -8 -357 -11 -3 -3 -81 -162 -173 -355 -93
-192 -172 -355 -176 -361 -6 -10 -152 -13 -672 -13 l-664 0 -20 -26 c-14 -18
-21 -41 -21 -70 l0 -44 -50 0 c-40 0 -52 -4 -64 -22 -13 -20 -116 -296 -116
-311 0 -21 37 -37 84 -37 l53 0 6 -67 c4 -38 9 -110 13 -162 l7 -94 -121 6
c-309 17 -659 -51 -906 -175 -234 -117 -394 -272 -491 -473 -52 -106 -71 -176
-86 -312 -8 -81 -8 -106 3 -134 13 -31 13 -36 -10 -69 -20 -29 -23 -44 -19
-85 4 -43 10 -54 46 -87 41 -36 42 -37 35 -87 -6 -43 -11 -53 -44 -75 -49 -32
-80 -96 -80 -165 0 -58 18 -101 63 -148 22 -23 27 -36 20 -45 -31 -39 -21
-143 22 -228 109 -216 463 -376 961 -435 436 -52 936 -12 1268 101 l70 24 588
0 588 0 8 23 c5 12 57 612 116 1332 59 721 109 1320 112 1333 4 19 11 22 50
22 52 0 84 14 84 37 0 17 -93 281 -110 313 -8 16 -21 20 -59 20 l-48 0 -7 48
c-11 88 -21 92 -211 92 -91 0 -165 2 -165 4 0 1 56 120 124 262 l125 259 488
7 c268 4 494 10 501 13 16 6 17 176 0 193 -13 13 -59 13 -765 2z m707 -93 l0
-34 -322 -6 c-178 -4 -396 -7 -485 -7 -158 0 -163 -1 -177 -22 -8 -13 -74
-148 -147 -300 l-133 -278 -33 0 c-18 0 -33 3 -33 6 0 10 301 637 312 651 8
10 115 13 452 16 242 1 469 3 504 5 l62 2 0 -33z m-880 -752 l0 -35 -920 0
-920 0 0 35 0 35 920 0 920 0 0 -35z m172 -210 c20 -55 37 -103 38 -107 0 -5
-508 -8 -1130 -8 l-1130 0 34 93 c19 50 37 100 41 110 7 16 64 17 1059 15
l1051 -3 37 -100z m-82 -202 c1 -5 -48 -599 -107 -1320 l-108 -1313 -484 0
-483 0 62 41 c134 90 216 208 227 327 4 43 1 68 -10 91 -15 29 -14 32 3 41 26
14 67 86 75 133 4 22 2 56 -5 82 -13 48 -69 120 -100 130 -16 5 -20 15 -20 56
0 44 4 54 34 82 57 54 66 138 20 188 -14 16 -15 23 -4 49 17 41 7 189 -19 292
-86 333 -358 589 -766 721 -60 19 -153 43 -205 53 -52 10 -97 19 -98 20 -3 2
-30 281 -32 322 0 9 208 12 1010 12 556 0 1010 -3 1010 -7z m-1904 -417 c430
-91 722 -289 859 -581 50 -104 72 -187 81 -301 6 -77 6 -82 -17 -98 -21 -15
-131 -16 -1304 -16 -1059 0 -1284 2 -1300 13 -16 13 -17 24 -12 113 13 241
137 462 346 620 157 119 377 210 606 253 157 29 158 29 400 26 191 -3 236 -6
341 -29z m946 -1083 c22 -20 24 -66 3 -87 -9 -8 -30 -18 -48 -21 -18 -3 -607
-4 -1310 -3 l-1279 3 -19 24 c-24 30 -24 56 1 81 20 20 33 20 1327 20 1202 0
1308 -1 1325 -17z m-62 -242 c0 -68 -25 -113 -80 -145 -49 -29 -151 -29 -200
0 -43 25 -80 78 -80 114 0 15 -7 33 -16 41 -24 20 -47 -1 -58 -51 -16 -72 -95
-130 -177 -130 -83 0 -179 69 -179 128 0 29 -21 62 -40 62 -19 0 -40 -33 -40
-62 0 -67 -112 -137 -201 -125 -87 12 -141 60 -154 138 -11 63 -75 63 -75 -1
0 -35 -37 -89 -76 -112 -42 -25 -111 -32 -162 -19 -61 17 -101 57 -116 116
-22 83 -67 86 -80 6 -11 -72 -91 -131 -176 -131 -83 0 -166 57 -176 121 -9 53
-25 73 -52 65 -16 -5 -24 -18 -28 -46 -4 -21 -14 -52 -24 -68 -33 -54 -136
-84 -216 -62 -84 24 -125 86 -116 178 l4 42 1259 0 1259 0 0 -59z m-2441 -226
c96 -32 231 -4 291 60 l21 22 34 -33 c94 -88 287 -83 374 10 l25 26 30 -29
c56 -53 93 -66 186 -66 94 0 139 16 189 66 l28 28 24 -25 c37 -40 98 -66 166
-72 79 -6 143 11 199 55 l44 33 44 -33 c56 -44 120 -61 199 -55 70 6 117 26
164 70 29 29 32 29 41 11 6 -10 35 -32 64 -49 47 -26 62 -29 138 -29 100 0
144 19 204 85 38 42 38 42 58 23 55 -56 52 -147 -6 -200 l-36 -33 -1297 0
c-1270 0 -1299 0 -1330 20 -69 42 -83 142 -28 200 l28 29 46 -48 c33 -33 63
-53 100 -66z m2492 -236 c6 -13 9 -39 5 -63 -38 -241 -392 -425 -946 -492
-162 -20 -534 -22 -695 -5 -587 63 -967 252 -992 495 -4 38 -2 61 7 71 11 13
162 15 1311 15 l1298 0 12 -21z"/>
<path d="M3702 3187 c-17 -21 -45 -367 -30 -384 19 -23 51 -11 59 22 11 48 32
342 26 359 -8 19 -40 21 -55 3z"/>
<path d="M3641 2508 c-12 -30 -134 -1535 -126 -1548 8 -13 52 -13 60 0 4 6 35
355 70 777 45 544 61 771 53 780 -17 20 -48 15 -57 -9z"/>
</g>
</svg>
